<svg viewBox="0 0 330 200" xmlns="http://www.w3.org/2000/svg"><g><g><g><g><g><line x1="58" y1="178" x2="53" y2="178" style="visibility: inherit;" fill="rgb(0, 0, 0)" stroke="rgb(204, 204, 204)" stroke-width="1px"></line><line x1="58" y1="158.2222222222222" x2="53" y2="158.2222222222222" style="visibility: inherit;" fill="rgb(0, 0, 0)" stroke="rgb(204, 204, 204)" stroke-width="1px"></line><line x1="58" y1="138.44444444444443" x2="53" y2="138.44444444444443" style="visibility: inherit;" fill="rgb(0, 0, 0)" stroke="rgb(204, 204, 204)" stroke-width="1px"></line><line x1="58" y1="118.66666666666663" x2="53" y2="118.66666666666663" style="visibility: inherit;" fill="rgb(0, 0, 0)" stroke="rgb(204, 204, 204)" stroke-width="1px"></line><line x1="58" y1="98.88888888888884" x2="53" y2="98.88888888888884" style="visibility: inherit;" fill="rgb(0, 0, 0)" stroke="rgb(204, 204, 204)" stroke-width="1px"></line><line x1="58" y1="79.11111111111117" x2="53" y2="79.11111111111117" style="visibility: inherit;" fill="rgb(0, 0, 0)" stroke="rgb(204, 204, 204)" stroke-width="1px"></line><line x1="58" y1="59.333333333333385" x2="53" y2="59.333333333333385" style="visibility: inherit;" fill="rgb(0, 0, 0)" stroke="rgb(204, 204, 204)" stroke-width="1px"></line><line x1="58" y1="39.55555555555557" x2="53" y2="39.55555555555557" style="visibility: inherit;" fill="rgb(0, 0, 0)" stroke="rgb(204, 204, 204)" stroke-width="1px"></line><line x1="58" y1="19.7777777777778" x2="53" y2="19.7777777777778" style="visibility: inherit;" fill="rgb(0, 0, 0)" stroke="rgb(204, 204, 204)" stroke-width="1px"></line><line x1="58" y1="0" x2="53" y2="0" style="visibility: inherit;" fill="rgb(0, 0, 0)" stroke="rgb(204, 204, 204)" stroke-width="1px"></line></g><g transform="translate(48, 0)"><text x="0" y="178" dx="0em" dy="0.3em" style="text-anchor: end; visibility: hidden; font-family: &quot;Helvetica Neue&quot;, sans-serif; font-size: 12px; font-weight: 200;" fill="rgb(50, 49, 63)" stroke="none" stroke-width="1px">0.72</text><text x="0" y="158.2222222222222" dx="0em" dy="0.3em" style="text-anchor: end; visibility: inherit; font-family: &quot;Helvetica Neue&quot;, sans-serif; font-size: 12px; font-weight: 200;" fill="rgb(50, 49, 63)" stroke="none" stroke-width="1px">0.74</text><text x="0" y="138.44444444444443" dx="0em" dy="0.3em" style="text-anchor: end; visibility: hidden; font-family: &quot;Helvetica Neue&quot;, sans-serif; font-size: 12px; font-weight: 200;" fill="rgb(50, 49, 63)" stroke="none" stroke-width="1px">0.76</text><text x="0" y="118.66666666666663" dx="0em" dy="0.3em" style="text-anchor: end; visibility: inherit; font-family: &quot;Helvetica Neue&quot;, sans-serif; font-size: 12px; font-weight: 200;" fill="rgb(50, 49, 63)" stroke="none" stroke-width="1px">0.78</text><text x="0" y="98.88888888888884" dx="0em" dy="0.3em" style="text-anchor: end; visibility: hidden; font-family: &quot;Helvetica Neue&quot;, sans-serif; font-size: 12px; font-weight: 200;" fill="rgb(50, 49, 63)" stroke="none" stroke-width="1px">0.8</text><text x="0" y="79.11111111111117" dx="0em" dy="0.3em" style="text-anchor: end; visibility: inherit; font-family: &quot;Helvetica Neue&quot;, sans-serif; font-size: 12px; font-weight: 200;" fill="rgb(50, 49, 63)" stroke="none" stroke-width="1px">0.82</text><text x="0" y="59.333333333333385" dx="0em" dy="0.3em" style="text-anchor: end; visibility: hidden; font-family: &quot;Helvetica Neue&quot;, sans-serif; font-size: 12px; font-weight: 200;" fill="rgb(50, 49, 63)" stroke="none" stroke-width="1px">0.84</text><text x="0" y="39.55555555555557" dx="0em" dy="0.3em" style="text-anchor: end; visibility: inherit; font-family: &quot;Helvetica Neue&quot;, sans-serif; font-size: 12px; font-weight: 200;" fill="rgb(50, 49, 63)" stroke="none" stroke-width="1px">0.86</text><text x="0" y="19.7777777777778" dx="0em" dy="0.3em" style="text-anchor: end; visibility: hidden; font-family: &quot;Helvetica Neue&quot;, sans-serif; font-size: 12px; font-weight: 200;" fill="rgb(50, 49, 63)" stroke="none" stroke-width="1px">0.88</text><text x="0" y="0" dx="0em" dy="0.3em" style="text-anchor: end; visibility: hidden; font-family: &quot;Helvetica Neue&quot;, sans-serif; font-size: 12px; font-weight: 200;" fill="rgb(50, 49, 63)" stroke="none" stroke-width="1px">0.9</text></g><line x1="58" y1="0" x2="58" y2="178" fill="rgb(0, 0, 0)" stroke="rgb(204, 204, 204)" stroke-width="1px"></line></g></g><g transform="translate(58, 0)" clip-path="url(#clip_0)"><clipPath id="clip_0"><rect width="272" height="178"></rect></clipPath><g><g><g><line x1="0" y1="0" x2="0" y2="178" fill="rgb(0, 0, 0)" stroke="rgb(60, 60, 60)" stroke-width="1px" opacity="0.25"></line><line x1="34" y1="0" x2="34" y2="178" fill="rgb(0, 0, 0)" stroke="rgb(60, 60, 60)" stroke-width="1px" opacity="0.25"></line><line x1="68" y1="0" x2="68" y2="178" fill="rgb(0, 0, 0)" stroke="rgb(60, 60, 60)" stroke-width="1px" opacity="0.25"></line><line x1="102" y1="0" x2="102" y2="178" fill="rgb(0, 0, 0)" stroke="rgb(60, 60, 60)" stroke-width="1px" opacity="0.25"></line><line x1="136" y1="0" x2="136" y2="178" fill="rgb(0, 0, 0)" stroke="rgb(60, 60, 60)" stroke-width="1px" opacity="0.25"></line><line x1="170" y1="0" x2="170" y2="178" fill="rgb(0, 0, 0)" stroke="rgb(60, 60, 60)" stroke-width="1px" opacity="0.25"></line><line x1="204" y1="0" x2="204" y2="178" fill="rgb(0, 0, 0)" stroke="rgb(60, 60, 60)" stroke-width="1px" opacity="0.25"></line><line x1="238" y1="0" x2="238" y2="178" fill="rgb(0, 0, 0)" stroke="rgb(60, 60, 60)" stroke-width="1px" opacity="0.25"></line><line x1="272" y1="0" x2="272" y2="178" fill="rgb(0, 0, 0)" stroke="rgb(60, 60, 60)" stroke-width="1px" opacity="0.25"></line></g><g><line x1="0" y1="178" x2="272" y2="178" fill="rgb(0, 0, 0)" stroke="rgb(60, 60, 60)" stroke-width="1px" opacity="0.25"></line><line x1="0" y1="158.2222222222222" x2="272" y2="158.2222222222222" fill="rgb(0, 0, 0)" stroke="rgb(60, 60, 60)" stroke-width="1px" opacity="0.25"></line><line x1="0" y1="138.44444444444443" x2="272" y2="138.44444444444443" fill="rgb(0, 0, 0)" stroke="rgb(60, 60, 60)" stroke-width="1px" opacity="0.25"></line><line x1="0" y1="118.66666666666663" x2="272" y2="118.66666666666663" fill="rgb(0, 0, 0)" stroke="rgb(60, 60, 60)" stroke-width="1px" opacity="0.25"></line><line x1="0" y1="98.88888888888884" x2="272" y2="98.88888888888884" fill="rgb(0, 0, 0)" stroke="rgb(60, 60, 60)" stroke-width="1px" opacity="0.25"></line><line x1="0" y1="79.11111111111117" x2="272" y2="79.11111111111117" fill="rgb(0, 0, 0)" stroke="rgb(60, 60, 60)" stroke-width="1px" opacity="0.25"></line><line x1="0" y1="59.333333333333385" x2="272" y2="59.333333333333385" fill="rgb(0, 0, 0)" stroke="rgb(60, 60, 60)" stroke-width="1px" opacity="0.25"></line><line x1="0" y1="39.55555555555557" x2="272" y2="39.55555555555557" fill="rgb(0, 0, 0)" stroke="rgb(60, 60, 60)" stroke-width="1px" opacity="0.25"></line><line x1="0" y1="19.7777777777778" x2="272" y2="19.7777777777778" fill="rgb(0, 0, 0)" stroke="rgb(60, 60, 60)" stroke-width="1px" opacity="0.25"></line><line x1="0" y1="0" x2="272" y2="0" fill="rgb(0, 0, 0)" stroke="rgb(60, 60, 60)" stroke-width="1px" opacity="0.25"></line></g></g></g><g><g><line x1="0" y1="889.9999999999998" x2="272" y2="889.9999999999998" fill="rgb(0, 0, 0)" stroke="rgb(153, 153, 153)" stroke-width="1.5px"></line></g></g><g><g><line x1="0" y1="0" x2="0" y2="178" fill="rgb(0, 0, 0)" stroke="rgb(153, 153, 153)" stroke-width="1.5px"></line></g></g><g><g><g><g><g><path stroke="rgb(0, 153, 136)" stroke-width="2px" d="M6.800000000000001,217.42911709679504L13.600000000000001,159.5407094226942L20.4,134.34737929411216L27.200000000000003,118.5732478974692L34,109.22201101667247L40.8,102.10132224549956L47.599999999999994,96.39269520532156L54.400000000000006,91.46494839178972L61.2,87.2870311628696L68,83.49465809842107L74.80000000000001,79.75612727571826L81.6,76.37199839572217L88.4,72.79865727423348L95.19999999999999,69.80853638527611L102,66.86316954675935L108.80000000000001,63.85093792141072L115.6,61.29139213813485L122.4,58.25938464662603L129.2,56.00919931004982L136,53.90652500211819L142.8,51.782647393094834L149.60000000000002,49.58301397414468L156.39999999999998,48.11448073300963L163.2,46.2992215127114L170,44.29608490613319L176.8,42.66682651469958L183.60000000000002,41.04380648217139L190.39999999999998,39.462346462092825L197.2,37.63228230129096L204,36.196386491415694L210.8,34.79526709650435L217.60000000000002,33.26249420378895L224.39999999999998,32.27853620493562L231.2,30.67711112944079L238,28.814862207632387L244.8,27.747943968136042" style="fill: none;" fill="none"></path></g><g><path stroke="rgb(0, 119, 187)" stroke-width="2px" d="M6.800000000000001,154.749210410648L13.600000000000001,139.59788976444136L20.4,110.09095168438071L27.200000000000003,120.91049818382922L34,133.5471446459529L40.8,141.23936930812044L47.599999999999994,130.52658475471213L54.400000000000006,141.42208940866783L61.2,133.48187547631582L68,113.50105756676146L74.80000000000001,125.41219410240615L81.6,118.5446927775033L88.4,107.79856874328095L95.19999999999999,103.85323749271183L102,134.07777216225526L108.80000000000001,137.34376885043247L115.6,116.37998127225111L122.4,124.46101718454554L129.2,122.4030515921601L136,127.11281363919392L142.8,117.42953628762132L149.60000000000002,116.1683956185945L156.39999999999998,118.09956233650252L163.2,116.19825670801669L170,141.76009943736028L176.8,126.07335454328648L183.60000000000002,99.80034715078732L190.39999999999998,97.2379380062455L197.2,85.27997362001007L204,119.2083391958422L210.8,122.38390967798131L217.60000000000002,110.33322964894472L224.39999999999998,114.4330554066097L231.2,83.64655260598603L238,72.19402783574606L244.8,79.19584982276346" style="fill: none;" fill="none"></path></g><g><path stroke="rgb(255, 112, 67)" stroke-width="2px" d="M6.800000000000001,122.80156122313593L13.600000000000001,113.4606689876979L20.4,118.2264303323092L27.200000000000003,89.42160808767372L34,75.8097212193641L40.8,59.99217109508582L47.599999999999994,71.4886903700268L54.400000000000006,60.94960556477969L61.2,65.81215434760621L68,83.7344773392184L74.80000000000001,71.41849740365349L81.6,75.04145807464481L88.4,87.18682916246311L95.19999999999999,94.46389172685458L102,78.88986721483067L108.80000000000001,76.52664135723029L115.6,97.03280398879996L122.4,87.41209303461238L129.2,86.62240461288786L136,87.14502062640247L142.8,93.43688018173465L149.60000000000002,96.21553262537161L156.39999999999998,92.9008521491897L163.2,91.90842717647287L170,71.38568177963992L176.8,84.97752387311057L183.60000000000002,108.07805716386777L190.39999999999998,106.99292525207476L197.2,116.30546858710679L204,92.00213063062277L210.8,86.38738903082334L217.60000000000002,94.97488756051808L224.39999999999998,91.1601292667021L231.2,128.72574908674306L238,136.31969245631265L244.8,123.93790696620403" style="fill: none;" fill="none"></path></g><g><path stroke="rgb(187, 187, 187)" stroke-width="2px" d="M6.800000000000001,154.42113717397052L13.600000000000001,139.3294588393635L20.4,110.1744946763089L27.200000000000003,120.58712300083599L34,132.95422096224488L40.8,140.40503305946874L47.599999999999994,129.92030591784373L54.400000000000006,140.5956997904717L61.2,132.78696262709553L68,113.19536524950523L74.80000000000001,124.85774170522261L81.6,118.09795476422588L88.4,107.58689893394536L95.19999999999999,103.75681091075481L102,133.5110460009775L108.80000000000001,136.719237387028L115.6,116.18131282128235L122.4,124.08056506399626L129.2,122.03560638614525L136,126.70236189316925L142.8,117.1831273769159L149.60000000000002,115.96347102617227L156.39999999999998,117.84078035611645L163.2,115.9488212322513L170,141.03742265308782L176.8,125.65134884421482L183.60000000000002,99.88535557474826L190.39999999999998,97.3381245842591L197.2,85.59858330931192L204,118.92897971845176L210.8,122.01428668587282L217.60000000000002,110.1755144392874L224.39999999999998,114.19406462201675L231.2,84.10946295982453L238,72.85251819076468L244.8,79.65528552584448" style="fill: none;" fill="none"></path></g></g></g></g><g opacity="0.2"><g><g><g><path stroke="rgb(0, 153, 136)" stroke-width="2px" d="M6.800000000000001,217.42911709679493L13.600000000000001,124.8076648182339L20.4,110.16178237067328L27.200000000000003,100.02286937501695L34,97.0130361451043L40.8,92.25084622701009L47.599999999999994,88.2292671998342L54.400000000000006,84.28024623129103L61.2,81.12541476885477L68,77.86342607604134L74.80000000000001,74.1822392410702L81.6,71.31422135565016L88.4,67.45031317075095L95.19999999999999,65.32921300994026L102,62.44858145713806L108.80000000000001,59.334714942508285L115.6,57.45315657721626L122.4,53.712143235736434L129.2,52.63426409827339L136,50.75270573298138L142.8,48.5969474580553L149.60000000000002,46.28363622559442L156.39999999999998,45.911709864934295L163.2,43.57635418574017L170,41.29139423370364L176.8,40.222945875591705L183.60000000000002,38.609280586242704L190.39999999999998,37.09015885988873L197.2,34.88718774583606L204,34.04254357020062L210.8,32.69358846876358L217.60000000000002,30.963335169686218L224.39999999999998,30.802599324120422L231.2,28.27497363090518L238,26.02148890495303L244.8,26.14756663640341" style="fill: none;" fill="none"></path></g><g><path stroke="rgb(0, 119, 187)" stroke-width="2px" d="M6.800000000000001,154.7492104106479L13.600000000000001,130.50709737671747L20.4,81.7642911275228L27.200000000000003,133.6342848671807L34,150.04555026690164L40.8,151.88048521677652L47.599999999999994,115.20713143878513L54.400000000000006,157.30783979098L61.2,121.77160223325092L68,83.83187161551582L74.80000000000001,143.17086577415466L81.6,108.2808134290907L88.4,91.71447065141466L95.19999999999999,97.9429699314965L102,179.3790463606516L108.80000000000001,142.24046044879486L115.6,84.94317107730443L122.4,136.58051927884418L129.2,119.31641671392651L136,134.17702621883814L142.8,102.90515131420558L149.60000000000002,114.27672611342535L156.39999999999998,120.99627428584627L163.2,113.34632078806558L170,180.10268184873792L176.8,102.54330409897698L183.60000000000002,60.39090328746373L190.39999999999998,93.39432822333441L197.2,67.34303805563185L204,170.1008688078986L210.8,127.14726434813605L217.60000000000002,92.2572120030721L224.39999999999998,120.58279355367023L231.2,37.466800610224425L238,55.0152411725786L244.8,89.69858262274" style="fill: none;" fill="none"></path></g><g><path stroke="rgb(255, 112, 67)" stroke-width="2px" d="M6.800000000000001,122.80156122313605L13.600000000000001,107.8561336464352L20.4,122.80156122313605L27.200000000000003,55.54713712798225L34,58.03804172409906L40.8,38.11080495516461L47.599999999999994,87.92889687750075L54.400000000000006,45.583518743515015L61.2,72.98346930079991L68,110.347038242552L74.80000000000001,53.05623253186545L81.6,80.45618308915031L88.4,105.36522905031839L95.19999999999999,105.36522905031839L102,55.54713712798225L108.80000000000001,72.98346930079991L115.6,127.78337041536966L122.4,72.98346930079991L129.2,85.43799228138393L136,87.92889687750075L142.8,102.87432445420158L149.60000000000002,100.38341985808478L156.39999999999998,87.92889687750075L163.2,90.41980147361755L170,40.6017095512814L176.8,105.36522905031839L183.60000000000002,142.7287979920705L190.39999999999998,105.36522905031839L197.2,130.27427501148645L204,55.54713712798225L210.8,77.96527849303352L217.60000000000002,107.8561336464352L224.39999999999998,85.43799228138393L231.2,185.07417612605622L238,147.7106071843041L244.8,105.36522905031839" style="fill: none;" fill="none"></path></g><g><path stroke="rgb(187, 187, 187)" stroke-width="2px" d="M6.800000000000001,154.42113717397052L13.600000000000001,130.2744518385993L20.4,82.18572907977635L27.200000000000003,132.83237391048004L34,149.10070406066046L40.8,150.71218848228452L47.599999999999994,114.92697834968567L54.400000000000006,156.16052654054428L61.2,121.27059208022223L68,84.1041264269087L74.80000000000001,142.2455294926961L81.6,107.99506081475151L88.4,91.85463560952081L95.19999999999999,98.01918241712782L102,178.10742364989383L108.80000000000001,141.5292618009779L115.6,85.38311693403456L122.4,135.92743780877854L129.2,118.96847989824082L136,133.70206859376694L142.8,102.90479765997992L149.60000000000002,114.13402663336859L156.39999999999998,120.65670728683472L163.2,113.11090495851305L170,178.67014646530149L176.8,102.5723037454817L183.60000000000002,61.23643159866333L190.39999999999998,93.51728200912476L197.2,67.98928221066794L204,168.92455591095816L210.8,126.64224611388312L217.60000000000002,92.41735842492845L224.39999999999998,120.22188941637674L231.2,38.98256262143454L238,55.9671015209622L244.8,89.85943635304768" style="fill: none;" fill="none"></path></g></g></g></g></g></g><g transform="translate(58, 178)" clip-path="url(#clip_1)"><clipPath id="clip_1"><rect width="272" height="22"></rect></clipPath><g><g><line x1="0" y1="0" x2="0" y2="5" style="visibility: inherit;" fill="rgb(0, 0, 0)" stroke="rgb(204, 204, 204)" stroke-width="1px"></line><line x1="34" y1="0" x2="34" y2="5" style="visibility: inherit;" fill="rgb(0, 0, 0)" stroke="rgb(204, 204, 204)" stroke-width="1px"></line><line x1="68" y1="0" x2="68" y2="5" style="visibility: inherit;" fill="rgb(0, 0, 0)" stroke="rgb(204, 204, 204)" stroke-width="1px"></line><line x1="102" y1="0" x2="102" y2="5" style="visibility: inherit;" fill="rgb(0, 0, 0)" stroke="rgb(204, 204, 204)" stroke-width="1px"></line><line x1="136" y1="0" x2="136" y2="5" style="visibility: inherit;" fill="rgb(0, 0, 0)" stroke="rgb(204, 204, 204)" stroke-width="1px"></line><line x1="170" y1="0" x2="170" y2="5" style="visibility: inherit;" fill="rgb(0, 0, 0)" stroke="rgb(204, 204, 204)" stroke-width="1px"></line><line x1="204" y1="0" x2="204" y2="5" style="visibility: inherit;" fill="rgb(0, 0, 0)" stroke="rgb(204, 204, 204)" stroke-width="1px"></line><line x1="238" y1="0" x2="238" y2="5" style="visibility: inherit;" fill="rgb(0, 0, 0)" stroke="rgb(204, 204, 204)" stroke-width="1px"></line><line x1="272" y1="0" x2="272" y2="5" style="visibility: inherit;" fill="rgb(0, 0, 0)" stroke="rgb(204, 204, 204)" stroke-width="1px"></line></g><g transform="translate(0, 8)"><text x="0" y="0" dx="0em" dy="0.95em" style="text-anchor: middle; visibility: hidden; font-family: &quot;Helvetica Neue&quot;, sans-serif; font-size: 12px; font-weight: 200;" fill="rgb(50, 49, 63)" stroke="none" stroke-width="1px">0</text><text x="34" y="0" dx="0em" dy="0.95em" style="text-anchor: middle; visibility: inherit; font-family: &quot;Helvetica Neue&quot;, sans-serif; font-size: 12px; font-weight: 200;" fill="rgb(50, 49, 63)" stroke="none" stroke-width="1px">5</text><text x="68" y="0" dx="0em" dy="0.95em" style="text-anchor: middle; visibility: inherit; font-family: &quot;Helvetica Neue&quot;, sans-serif; font-size: 12px; font-weight: 200;" fill="rgb(50, 49, 63)" stroke="none" stroke-width="1px">10</text><text x="102" y="0" dx="0em" dy="0.95em" style="text-anchor: middle; visibility: inherit; font-family: &quot;Helvetica Neue&quot;, sans-serif; font-size: 12px; font-weight: 200;" fill="rgb(50, 49, 63)" stroke="none" stroke-width="1px">15</text><text x="136" y="0" dx="0em" dy="0.95em" style="text-anchor: middle; visibility: inherit; font-family: &quot;Helvetica Neue&quot;, sans-serif; font-size: 12px; font-weight: 200;" fill="rgb(50, 49, 63)" stroke="none" stroke-width="1px">20</text><text x="170" y="0" dx="0em" dy="0.95em" style="text-anchor: middle; visibility: inherit; font-family: &quot;Helvetica Neue&quot;, sans-serif; font-size: 12px; font-weight: 200;" fill="rgb(50, 49, 63)" stroke="none" stroke-width="1px">25</text><text x="204" y="0" dx="0em" dy="0.95em" style="text-anchor: middle; visibility: inherit; font-family: &quot;Helvetica Neue&quot;, sans-serif; font-size: 12px; font-weight: 200;" fill="rgb(50, 49, 63)" stroke="none" stroke-width="1px">30</text><text x="238" y="0" dx="0em" dy="0.95em" style="text-anchor: middle; visibility: inherit; font-family: &quot;Helvetica Neue&quot;, sans-serif; font-size: 12px; font-weight: 200;" fill="rgb(50, 49, 63)" stroke="none" stroke-width="1px">35</text><text x="272" y="0" dx="0em" dy="0.95em" style="text-anchor: middle; visibility: hidden; font-family: &quot;Helvetica Neue&quot;, sans-serif; font-size: 12px; font-weight: 200;" fill="rgb(50, 49, 63)" stroke="none" stroke-width="1px">40</text></g><line x1="0" y1="0" x2="272" y2="0" fill="rgb(0, 0, 0)" stroke="rgb(204, 204, 204)" stroke-width="1px"></line></g></g></g></g></svg>